# xmcd CD database file
#
# Track frame offsets:
#	182
#	13434
#	25790
#	39652
#	51955
#	63583
#	74260
#	86341
#	105194
#	122830
#	135075
#	148496
#	161367
#	174792
#	188113
#	201551
#	211201
#	223215
#	232765
#	244720
#	257358
#	270860
#	284782
#	299384
#	311538
#
# Disc length: 4300 seconds
#
# Revision: 1
# Processed by: cddbd v1.5.1PL2 Copyright (c) Steve Scherf et al.
# Submitted via: CDex 1.51
#
DISCID=6e10ca19
DTITLE=Howlin' Wolf - The Chronological Howlin' Wolf: 1951-1952
DYEAR=2003
DGENRE=Blues
TTITLE0=Moanin' At Midnight
TTITLE1=How Many More Years
TTITLE2=Riding In The Moonlight
TTITLE3=Dog Me Around
TTITLE4=Morning At Midnight
TTITLE5=Keep What You Got
TTITLE6=Riding In The Moonlight
TTITLE7=House Rockin' Boogie
TTITLE8=Crying At Daybreak
TTITLE9=Passing By Blues
TTITLE10=My Baby Stole Off
TTITLE11=I Want Your Picture
TTITLE12=The Wolf Is At Your Door (Howlin' For My Baby)
TTITLE13=California Blues
TTITLE14=California Boogie
TTITLE15=Look-A-Here Baby
TTITLE16=Howlin' Wolf Boogie
TTITLE17=Smile At Me
TTITLE18=Gettin' Old And Gray
TTITLE19=Mr.Highway Man
TTITLE20=My Baby Walked Off
TTITLE21=C. V. Wine Blues
TTITLE22=My Troubles And Me
TTITLE23=Chocolate Drop
TTITLE24=Highway Man
EXTD=YEAR: 2003
EXTT0=
EXTT1=
EXTT2=
EXTT3=
EXTT4=
EXTT5=
EXTT6=
EXTT7=
EXTT8=
EXTT9=
EXTT10=
EXTT11=
EXTT12=
EXTT13=
EXTT14=
EXTT15=
EXTT16=
EXTT17=
EXTT18=
EXTT19=
EXTT20=
EXTT21=
EXTT22=
EXTT23=
EXTT24=
PLAYORDER=
